<svg width="126" height="45" viewBox="0 0 126 45" fill="none" xmlns="http://www.w3.org/2000/svg">
<rect x="2.2172" y="2.2172" width="121.007" height="40.0877" fill="#4C588C" stroke="#4C588C" stroke-width="4.4344"/>
<path d="M38.3559 29.616C38.2292 29.3625 38.1262 28.911 38.047 28.2615C37.0252 29.3229 35.8054 29.8536 34.3876 29.8536C33.1203 29.8536 32.0788 29.4972 31.2629 28.7843C30.455 28.0635 30.0511 27.1526 30.0511 26.0517C30.0511 24.7131 30.558 23.6754 31.5718 22.9388C32.5936 22.1943 34.0272 21.822 35.8728 21.822H38.0114V20.8121C38.0114 20.0438 37.7817 19.4339 37.3223 18.9824C36.8629 18.523 36.1856 18.2933 35.2906 18.2933C34.5065 18.2933 33.849 18.4914 33.3183 18.8874C32.7877 19.2834 32.5223 19.7626 32.5223 20.325H30.3124C30.3124 19.6834 30.5382 19.0656 30.9897 18.4715C31.4491 17.8696 32.0669 17.3943 32.8431 17.0458C33.6273 16.6973 34.4866 16.5231 35.4213 16.5231C36.9025 16.5231 38.0628 16.8953 38.9024 17.6399C39.742 18.3765 40.1777 19.3943 40.2094 20.6933V26.6101C40.2094 27.7902 40.3598 28.7288 40.6608 29.4259V29.616H38.3559ZM34.7084 27.9407C35.3975 27.9407 36.051 27.7625 36.6688 27.4061C37.2866 27.0497 37.7341 26.5863 38.0114 26.016V23.3784H36.2886C33.5956 23.3784 32.2491 24.1665 32.2491 25.7427C32.2491 26.4318 32.4788 26.9705 32.9382 27.3586C33.3976 27.7467 33.9876 27.9407 34.7084 27.9407ZM48.8112 28.0596C49.5954 28.0596 50.2805 27.8219 50.8666 27.3467C51.4528 26.8714 51.7775 26.2774 51.8409 25.5645H53.9201C53.8805 26.3012 53.627 27.0021 53.1597 27.6675C52.6924 28.3328 52.0666 28.8635 51.2825 29.2595C50.5063 29.6556 49.6825 29.8536 48.8112 29.8536C47.0608 29.8536 45.6667 29.2714 44.6291 28.1071C43.5994 26.9348 43.0846 25.3348 43.0846 23.3071V22.9388C43.0846 21.6874 43.3143 20.5745 43.7737 19.6002C44.2331 18.626 44.8905 17.8696 45.7459 17.331C46.6093 16.7924 47.6271 16.5231 48.7993 16.5231C50.2409 16.5231 51.4369 16.9547 52.3874 17.8181C53.3458 18.6814 53.8567 19.8022 53.9201 21.1804L51.8409 21.1804C51.7775 20.3488 51.4607 19.6676 50.8904 19.1369C50.328 18.5983 49.631 18.329 48.7993 18.329C47.6825 18.329 46.8152 18.7329 46.1974 19.5408C45.5875 20.3408 45.2826 21.5012 45.2826 23.022V23.4378C45.2826 24.919 45.5875 26.0596 46.1974 26.8596C46.8073 27.6596 47.6786 28.0596 48.8112 28.0596ZM59.3735 13.6478V16.7607H61.7734V18.4597H59.3735V26.4318C59.3735 26.9467 59.4804 27.3348 59.6943 27.5962C59.9081 27.8497 60.2725 27.9764 60.7873 27.9764C61.0408 27.9764 61.3893 27.9289 61.8328 27.8338V29.616C61.2546 29.7744 60.6923 29.8536 60.1457 29.8536C59.1636 29.8536 58.423 29.5566 57.924 28.9625C57.425 28.3685 57.1755 27.5249 57.1755 26.4318V18.4597H54.8349V16.7607H57.1755V13.6478H59.3735ZM66.7397 29.616H64.5417V16.7607H66.7397V29.616ZM64.3635 13.3508C64.3635 12.9944 64.4704 12.6934 64.6843 12.4479C64.9061 12.2023 65.2308 12.0795 65.6585 12.0795C66.0863 12.0795 66.411 12.2023 66.6328 12.4479C66.8546 12.6934 66.9655 12.9944 66.9655 13.3508C66.9655 13.7073 66.8546 14.0043 66.6328 14.2419C66.411 14.4795 66.0863 14.5983 65.6585 14.5983C65.2308 14.5983 64.9061 14.4795 64.6843 14.2419C64.4704 14.0043 64.3635 13.7073 64.3635 13.3508ZM74.5099 26.6338L77.694 16.7607H79.9396L75.3297 29.616H73.6545L68.9971 16.7607H71.2426L74.5099 26.6338ZM87.2226 29.8536C85.4801 29.8536 84.0623 29.2833 82.9692 28.1427C81.8762 26.9942 81.3296 25.4616 81.3296 23.5448V23.1408C81.3296 21.8656 81.5712 20.7289 82.0544 19.7309C82.5455 18.725 83.2266 17.9409 84.0979 17.3785C84.9771 16.8082 85.9276 16.5231 86.9494 16.5231C88.6206 16.5231 89.9196 17.0735 90.8464 18.1745C91.7731 19.2755 92.2364 20.8517 92.2364 22.9032V23.818L83.5276 23.818C83.5593 25.0853 83.9276 26.1111 84.6326 26.8952C85.3454 27.6714 86.2484 28.0596 87.3414 28.0596C88.1177 28.0596 88.7751 27.9011 89.3137 27.5843C89.8523 27.2675 90.3236 26.8477 90.7275 26.3249L92.0701 27.3704C90.9929 29.0259 89.3771 29.8536 87.2226 29.8536ZM86.9494 18.329C86.0623 18.329 85.3177 18.6537 84.7157 19.3032C84.1138 19.9448 83.7415 20.8478 83.5989 22.0121H90.0384V21.8458C89.9751 20.7289 89.6741 19.8656 89.1355 19.2557C88.5969 18.6379 87.8682 18.329 86.9494 18.329Z" fill="#E4E9F7"/>
</svg>
