<svg width="407" height="272" viewBox="0 0 407 272" fill="none" xmlns="http://www.w3.org/2000/svg">
<path d="M115.495 165.187L135.557 156.966L137.427 161.53L111.755 172.051L94.4064 129.719L100.018 127.419L115.495 165.187ZM134.962 143.83C133.699 140.748 133.164 137.73 133.357 134.776C133.569 131.814 134.477 129.224 136.08 127.004C137.703 124.777 139.9 123.096 142.672 121.96C146.956 120.205 151.023 120.269 154.875 122.155C158.745 124.032 161.689 127.432 163.707 132.356L163.862 132.734C165.117 135.796 165.654 138.791 165.472 141.718C165.302 144.617 164.4 147.194 162.766 149.448C161.151 151.695 158.929 153.398 156.099 154.558C151.834 156.305 147.767 156.24 143.896 154.363C140.045 152.478 137.118 149.093 135.116 144.208L134.962 143.83ZM140.632 142.254C142.061 145.743 144.014 148.214 146.488 149.667C148.982 151.113 151.586 151.279 154.3 150.167C157.033 149.047 158.767 147.092 159.502 144.3C160.229 141.489 159.802 138.155 158.221 134.298C156.807 130.848 154.84 128.395 152.318 126.938C149.808 125.453 147.197 125.267 144.483 126.379C141.828 127.468 140.119 129.402 139.356 132.182C138.594 134.962 139.019 138.319 140.632 142.254ZM187.968 136.37C189.887 135.584 191.325 134.315 192.283 132.564C193.24 130.813 193.439 129.034 192.879 127.226L197.968 125.141C198.609 126.983 198.692 128.953 198.216 131.05C197.739 133.146 196.74 135.073 195.219 136.828C193.716 138.576 191.899 139.886 189.767 140.76C185.483 142.516 181.488 142.489 177.781 140.68C174.086 138.844 171.221 135.445 169.188 130.483L168.818 129.582C167.563 126.519 167.01 123.566 167.157 120.721C167.304 117.876 168.154 115.366 169.707 113.19C171.28 111.006 173.501 109.326 176.369 108.151C179.897 106.705 183.257 106.562 186.448 107.721C189.66 108.873 192.034 111.103 193.571 114.412L188.483 116.498C187.494 114.526 186.035 113.177 184.108 112.45C182.191 111.696 180.215 111.736 178.18 112.57C175.447 113.69 173.73 115.548 173.028 118.145C172.338 120.714 172.756 123.86 174.281 127.581L174.698 128.599C176.183 132.223 178.073 134.709 180.368 136.055C182.663 137.401 185.196 137.506 187.968 136.37ZM210.889 114.412L208.958 119.312L213.486 130.361L208.107 132.565L189.806 87.9068L195.184 85.7025L206.253 112.713L207.714 108.073L213.27 93.7073L219.812 91.0265L212.957 109.184L234.129 121.901L227.819 124.487L210.889 114.412ZM250.968 115.679C246.704 117.427 242.663 117.453 238.844 115.758C235.017 114.044 232.143 110.841 230.221 106.151L229.816 105.162C228.537 102.041 227.988 99.0176 228.169 96.0908C228.362 93.1367 229.243 90.5347 230.811 88.2847C232.391 86.0074 234.431 84.3565 236.931 83.3318C241.021 81.6558 244.752 81.7002 248.124 83.465C251.496 85.2299 254.21 88.6224 256.268 93.6426L257.185 95.8813L235.873 104.615C237.222 107.684 239.152 109.825 241.663 111.037C244.186 112.222 246.785 112.266 249.46 111.17C251.359 110.391 252.809 109.344 253.81 108.029C254.81 106.713 255.542 105.214 256.007 103.529L260.34 104.741C259.365 109.873 256.241 113.519 250.968 115.679ZM238.742 87.7511C236.571 88.6407 235.075 90.1821 234.253 92.3752C233.424 94.5489 233.418 97.1319 234.237 100.124L249.995 93.6663L249.828 93.2592C248.553 90.5898 246.951 88.7789 245.021 87.8265C243.084 86.8548 240.991 86.8297 238.742 87.7511ZM261.389 92.0532C259.411 87.2268 258.966 82.8816 260.054 79.0174C261.133 75.1339 263.524 72.4336 267.227 70.9164C270.909 69.4072 274.343 69.4716 277.527 71.1097L270.807 54.7117L276.186 52.5075L294.487 97.1657L289.544 99.1913L287.901 95.9259C286.829 99.4436 284.375 101.989 280.537 103.562C276.893 105.055 273.306 104.782 269.776 102.742C266.266 100.694 263.526 97.2672 261.556 92.4602L261.389 92.0532ZM267.018 90.4594C268.479 94.0259 270.36 96.5152 272.659 97.9273C274.958 99.3395 277.406 99.5133 280.004 98.4489C283.415 97.0509 285.278 94.4989 285.593 90.793L279.672 76.3431C276.848 74.0368 273.769 73.5668 270.435 74.933C267.799 76.0133 266.161 77.8729 265.522 80.5118C264.883 83.1507 265.382 86.4666 267.018 90.4594Z" fill="#96373D"/>
<rect x="61.1813" y="123.219" width="253.38" height="86.4708" transform="rotate(-22.2843 61.1813 123.219)" stroke="#96373D" stroke-width="5.36253"/>
</svg>
